<svg id="Layer_1" data-name="Layer 1" xmlns="http://www.w3.org/2000/svg" viewBox="0 0 486.88 65.65"><defs><style>.cls-1{fill:#231f20;}.cls-2{fill:#43aece;}</style></defs><path class="cls-1" d="M119,20.23h4.7v33.7h-4.24V31.09l0-2.48h-.1a8.3,8.3,0,0,1-.61,1.44L108.26,53.93h-1L96.18,30.24l-.78-1.73h-.15c.07.8.1,1.66.1,2.58V53.93H91.16V20.23h4.73L107,44.17a14.57,14.57,0,0,1,.76,1.63h0a11.55,11.55,0,0,1,.68-1.68Z"/><rect class="cls-1" x="135.33" y="20.23" width="4.24" height="33.7"/><polygon class="cls-1" points="155.42 50.28 171.08 50.28 171.08 53.93 151.19 53.93 151.19 20.23 155.42 20.23 155.42 50.28"/><polygon class="cls-1" points="181.24 50.28 196.65 50.28 196.65 53.93 177 53.93 177 20.23 196.48 20.23 196.48 23.86 181.24 23.86 181.24 34.84 194.6 34.84 194.6 38.42 181.24 38.42 181.24 50.28"/><path class="cls-1" d="M202.42,49.14a25.2,25.2,0,0,0,9.18,1.6,10.84,10.84,0,0,0,6.21-1.52A4.78,4.78,0,0,0,220,45.05a4.38,4.38,0,0,0-1.78-3.53A16,16,0,0,0,214,39.1q-2.49-1-5-2.09a12.25,12.25,0,0,1-4.29-3.17,7.29,7.29,0,0,1-1.77-4.94,8.24,8.24,0,0,1,3.14-6.68c2.09-1.73,5-2.6,8.74-2.6A19.19,19.19,0,0,1,222.36,21l.59,4.24a16,16,0,0,0-7.82-1.73A9.25,9.25,0,0,0,209.47,25a4.71,4.71,0,0,0-2,3.91,4.37,4.37,0,0,0,1.77,3.49,15.21,15.21,0,0,0,4.31,2.43c1.69.65,3.39,1.34,5.09,2.09a12,12,0,0,1,4.31,3.19,7.58,7.58,0,0,1,1.76,5.07,8.11,8.11,0,0,1-3.41,6.8q-3.4,2.58-9.45,2.57a24.25,24.25,0,0,1-8.79-1.41Z"/><polygon class="cls-1" points="254.65 20.23 254.65 23.86 242.99 23.86 242.99 53.93 238.7 53.93 238.7 23.86 227.01 23.86 227.01 20.23 254.65 20.23"/><path class="cls-1" d="M257.38,37.08q0-7.89,4.4-12.67t11.72-4.79a15.21,15.21,0,0,1,11.71,4.79q4.44,4.79,4.43,12.67t-4.43,12.73a15.2,15.2,0,0,1-11.71,4.78q-7.33,0-11.72-4.78t-4.4-12.73m4.33,0q0,6.24,3.26,10a11.54,11.54,0,0,0,17,0q3.24-3.77,3.24-10A14.58,14.58,0,0,0,282,27.23a11.54,11.54,0,0,0-17,0,14.54,14.54,0,0,0-3.26,9.85"/><path class="cls-1" d="M321.35,20.23h4.24v33.7h-4.12L304.11,29.29c-.13-.16-.51-.72-1.15-1.68h-.09c0,.13,0,.59,0,1.39s0,1.36,0,1.7V53.93h-4.19V20.23h4.09l17.29,24.52,1.19,1.85h.17c-.06-1-.1-1.9-.12-2.75Z"/><polygon class="cls-1" points="341.46 50.28 356.88 50.28 356.88 53.93 337.23 53.93 337.23 20.23 356.71 20.23 356.71 23.86 341.46 23.86 341.46 34.84 354.83 34.84 354.83 38.42 341.46 38.42 341.46 50.28"/><path class="cls-1" d="M397.27,53.93l-3.67-9.57h-15L375,53.93h-4.38l13-33.7h5.19l13.37,33.7ZM380,40.86h12.27l-5.55-14.3a11,11,0,0,1-.59-1.85H386a12,12,0,0,1-.6,1.85Z"/><path class="cls-1" d="M417.66,20.18a12.42,12.42,0,0,1,9,3.22A11.49,11.49,0,0,1,430,32.09a10.77,10.77,0,0,1-3.41,8.38q-3.4,3.09-9.25,3.09c-1,0-2.54-.05-4.63-.15V53.93h-4.24V20.18Zm-.54,20a8.81,8.81,0,0,0,6.28-2.14,7.73,7.73,0,0,0,2.29-5.94,8,8,0,0,0-2.36-6.09,8.93,8.93,0,0,0-6.4-2.24h-4.24V40.22Z"/><path class="cls-1" d="M446.37,20.18a12.42,12.42,0,0,1,9,3.22,11.49,11.49,0,0,1,3.35,8.69,10.77,10.77,0,0,1-3.41,8.38q-3.4,3.09-9.25,3.09c-1,0-2.54-.05-4.63-.15V53.93h-4.24V20.18Zm-.54,20a8.81,8.81,0,0,0,6.28-2.14,7.73,7.73,0,0,0,2.29-5.94A8,8,0,0,0,452,26.05a8.93,8.93,0,0,0-6.4-2.24H441.4V40.22Z"/><path class="cls-1" d="M462.83,49.14a25.2,25.2,0,0,0,9.18,1.6,10.84,10.84,0,0,0,6.21-1.52,4.8,4.8,0,0,0,2.21-4.17,4.37,4.37,0,0,0-1.77-3.53,16,16,0,0,0-4.28-2.42q-2.49-1-5-2.09a12.25,12.25,0,0,1-4.29-3.17,7.29,7.29,0,0,1-1.78-4.94,8.25,8.25,0,0,1,3.15-6.68q3.14-2.59,8.74-2.6A19.19,19.19,0,0,1,482.77,21l.58,4.24a15.93,15.93,0,0,0-7.81-1.73A9.23,9.23,0,0,0,469.88,25a4.71,4.71,0,0,0-2,3.91,4.38,4.38,0,0,0,1.76,3.49,15.49,15.49,0,0,0,4.31,2.43c1.7.65,3.4,1.34,5.09,2.09a11.82,11.82,0,0,1,4.31,3.19,7.53,7.53,0,0,1,1.77,5.07A8.11,8.11,0,0,1,481.7,52q-3.4,2.58-9.45,2.57a24.17,24.17,0,0,1-8.79-1.41Z"/><path class="cls-1" d="M12.68.57c-.24.41-.55.79-.8,1.19a27.42,27.42,0,0,0-1.47,2.59A30.21,30.21,0,0,0,7.29,14.88a28.57,28.57,0,0,0,9,23.14,34.23,34.23,0,0,0,11.52,7.21,26.68,26.68,0,0,0,6.68,1.71c.4,0,.81,0,1.21,0,1.57.07,3.16,0,4.73.13,1.8.13,3.58.39,5.36.61a40.48,40.48,0,0,1,7,1.38,54.83,54.83,0,0,1,10.16,4.1c1.31.7,2.6,1.45,3.86,2.23a10.11,10.11,0,0,0,1.79,1.12,3.53,3.53,0,0,0-.34-.94,18.66,18.66,0,0,0-.91-1.71,16.06,16.06,0,0,0-7-6.22,21.72,21.72,0,0,0-6-1.75c-2.21-.35-4.44-.45-6.65-1a45.47,45.47,0,0,1-16-7A44,44,0,0,1,14,12,45.55,45.55,0,0,1,12.84,4.7c-.07-.9-.13-1.83-.13-2.74a4.3,4.3,0,0,0,0-1.39"/><path class="cls-2" d="M63,7.87a20.76,20.76,0,0,1-.35,6.85,36.39,36.39,0,0,1-1.37,5,34.74,34.74,0,0,1-8.25,12.44A43.45,43.45,0,0,1,48,36.45c-.56.41-1.14.82-1.72,1.21-.25.16-.66.33-.81.59a13.65,13.65,0,0,0,1.95-.59c1.64-.54,3.24-1.19,4.83-1.89C58.49,33,65.19,28.48,66.77,21.44A13.57,13.57,0,0,0,67,17.73a14.67,14.67,0,0,0-.84-3.82,28.5,28.5,0,0,0-1.94-4.2A6.06,6.06,0,0,0,63,7.87"/><path class="cls-2" d="M76,7.9a28.11,28.11,0,0,1-4.89,17.78,38.09,38.09,0,0,1-9.36,9.38,50.4,50.4,0,0,1-6.82,4c-.82.41-1.66.77-2.47,1.19-.29.14-.72.19-.93.44a37.72,37.72,0,0,0,6.07-.84c1.32-.25,2.61-.58,3.92-.92a33.21,33.21,0,0,0,3.38-1.08C70.65,35.74,76.49,32.11,78.55,26a14.57,14.57,0,0,0,.69-2.75,19.39,19.39,0,0,0-.06-5.59,31,31,0,0,0-2.13-7.44l-.72-1.61c-.09-.2-.18-.55-.36-.68"/><path class="cls-2" d="M3,18c-.11.47-.36.91-.51,1.36-.3.85-.57,1.72-.79,2.59a20.26,20.26,0,0,0,.05,11c2.66,8.3,11,12.63,18.65,15.31,1.28.44,2.59.77,3.9,1.1,2,.51,4,1,6,1.28a17.86,17.86,0,0,0,2.82.38v-.06a12.41,12.41,0,0,1-2.37-.78c-1.56-.57-3.08-1.16-4.58-1.85a41.48,41.48,0,0,1-17-13.77A47.08,47.08,0,0,1,5.57,28,28.6,28.6,0,0,1,3.5,21.31c-.14-.73-.29-1.48-.36-2.23A4.07,4.07,0,0,0,3,18"/><path class="cls-1" d="M9.3,59.93a2.86,2.86,0,0,0,1,.94,20.84,20.84,0,0,0,2.21,1.49A20.88,20.88,0,0,0,21.86,65,13.23,13.23,0,0,0,24,65c.72-.1,1.45-.11,2.17-.23a26.49,26.49,0,0,0,5.91-1.71,36,36,0,0,0,3.47-1.7c.61-.34,1.2-.74,1.82-1.08A32.45,32.45,0,0,1,41,58.72a70.55,70.55,0,0,1,15.13-3.41,52.67,52.67,0,0,1,7.21-.55,7.33,7.33,0,0,0-1.92-.56,32.23,32.23,0,0,0-5.06-.86A32.65,32.65,0,0,0,41,55.24a54.64,54.64,0,0,0-5.51,2.91,29.77,29.77,0,0,1-5.59,2.34,33.59,33.59,0,0,1-14.38.92,36.42,36.42,0,0,1-4.25-.88,16.48,16.48,0,0,0-2-.6"/><path class="cls-2" d="M9.17,53.18A4.77,4.77,0,0,0,10,54.34a10.73,10.73,0,0,0,2.76,2.4A13.61,13.61,0,0,0,15.3,58a15.59,15.59,0,0,0,11.3-1c1.08-.51,2.15-1,3.18-1.63.31-.18.91-.4,1.1-.7a9.24,9.24,0,0,0-1.52.48,14.48,14.48,0,0,1-1.69.44,29,29,0,0,1-7.89.63,25.79,25.79,0,0,1-7.4-1.61c-.67-.26-1.36-.53-2-.85a8.47,8.47,0,0,0-1.2-.61"/></svg>